<svg width="16" height="16" viewBox="0 0 16 16" fill="none" xmlns="http://www.w3.org/2000/svg">
<g clip-path="url(#clip0_44_350)">
<path d="M0.830665 9.5888C1.21223 9.92317 1.69299 10.1082 2.18234 10.1146L2.67797 10.121L4.46285 10.1442L5.4792 10.1573L5.44833 12.5382C5.43535 13.5389 5.71773 14.2641 6.28942 14.6951C7.19355 15.3782 8.4564 15.0118 8.50997 14.9937C8.66746 14.9456 8.77599 14.8026 8.7781 14.6395L8.81263 11.9763C8.8239 11.1074 9.24752 10.3756 10.0739 9.79963C10.6912 9.3684 11.318 9.18514 11.3841 9.16404L11.4754 9.14326C11.6073 9.374 11.8531 9.53092 12.1386 9.53462L14.5759 9.56622C15.0025 9.57175 15.3552 9.22807 15.3608 8.80146L15.4537 1.63684C15.4592 1.21023 15.1155 0.857519 14.6889 0.851987L12.2453 0.820304C12.0069 0.817213 11.789 0.924197 11.6456 1.09176C11.2589 0.669471 10.7071 0.401912 10.1048 0.394103L8.03761 0.367301L7.82431 0.364535L3.58639 0.309588C2.14657 0.29092 1.2177 1.03185 1.0375 2.34722L0.125803 7.57172C-2.19663e-05 8.32307 0.269155 9.09836 0.830665 9.5888ZM12.2164 1.59487C12.2166 1.58232 12.2261 1.57303 12.2386 1.57319L14.6791 1.60484C14.6917 1.605 14.701 1.61453 14.7008 1.62708L14.6079 8.7917C14.6077 8.80425 14.5982 8.81353 14.5857 8.81337L12.142 8.78169C12.1295 8.78153 12.1202 8.77199 12.1204 8.75945L12.2133 1.59483L12.2164 1.59487ZM0.87397 7.70065L1.78265 2.46669C1.7827 2.46356 1.78278 2.45728 1.786 2.45105C1.91422 1.51463 2.51641 1.04555 3.57981 1.05934L7.81772 1.11429L8.03103 1.11705L10.0982 1.14386C10.7664 1.15252 11.3402 1.65881 11.4352 2.31889C11.4381 2.34089 11.4441 2.36293 11.45 2.38497L11.3721 8.39522L11.2085 8.43075C11.2022 8.43066 11.1991 8.43376 11.1928 8.43368C11.1613 8.44268 10.4151 8.64321 9.65851 9.16676C8.62331 9.88122 8.07112 10.8498 8.05664 11.9665L8.02602 14.3286C7.69909 14.3777 7.14036 14.3987 6.73961 14.0923C6.373 13.8146 6.1915 13.2946 6.20118 12.548L6.23689 9.7938C6.23957 9.58677 6.07237 9.41518 5.86534 9.4125L4.47257 9.39444L2.68769 9.3713L2.19206 9.36487C1.88151 9.36084 1.57247 9.24075 1.32742 9.02423C0.961375 8.70261 0.785985 8.19521 0.87397 7.70065Z" fill="#838383"/>
</g>
<defs>
<clipPath id="clip0_44_350">
<rect width="15.2755" height="15.2755" fill="white" transform="translate(15.2743 15.4724) rotate(-179.257)"/>
</clipPath>
</defs>
</svg>
