<svg width="15" height="15" viewBox="0 0 15 15" fill="none" xmlns="http://www.w3.org/2000/svg">
<g clip-path="url(#clip0_44_345)">
<path d="M14.2568 5.59313C13.8779 5.26967 13.4035 5.09408 12.9229 5.09408H12.4362H10.6833H9.68525V2.75594C9.68525 1.77325 9.39876 1.06472 8.83194 0.648845C7.9355 -0.0103923 6.7002 0.365435 6.64783 0.383918C6.4938 0.433207 6.38906 0.574912 6.38906 0.735101V3.35049C6.38906 4.2038 5.98243 4.92773 5.1784 5.50379C4.5777 5.93507 3.96467 6.12298 3.89998 6.14455L3.81064 6.16611C3.67818 5.94123 3.43481 5.79028 3.15448 5.79028H0.760896C0.341941 5.79028 0 6.13223 0 6.55118V13.5872C0 14.0061 0.341941 14.3481 0.760896 14.3481H3.16064C3.39477 14.3481 3.60732 14.2402 3.74595 14.0739C4.13102 14.4836 4.67627 14.7393 5.26774 14.7393H7.29782H7.5073H11.6691C13.0831 14.7393 13.9857 14 14.1459 12.7061L14.9746 7.56468C15.0885 6.82535 14.8144 6.06753 14.2568 5.59313ZM3.17913 13.5872C3.17913 13.5995 3.16989 13.6087 3.15756 13.6087H0.760896C0.748574 13.6087 0.739332 13.5995 0.739332 13.5872V6.55118C0.739332 6.53886 0.748574 6.52962 0.760896 6.52962H3.16064C3.17297 6.52962 3.18221 6.53886 3.18221 6.55118V13.5872H3.17913ZM14.2383 7.44762L13.4127 12.5983C13.4127 12.6014 13.4127 12.6075 13.4096 12.6137C13.2957 13.5348 12.7104 14.003 11.666 14.003H7.50422H7.29474H5.26466C4.6085 14.003 4.0386 13.5132 3.93694 12.8663C3.93386 12.8447 3.9277 12.8232 3.92154 12.8016V6.89928L4.08173 6.86232C4.08789 6.86232 4.09097 6.85924 4.09713 6.85924C4.12794 6.84999 4.85803 6.6436 5.59428 6.1199C6.60162 5.40522 7.13147 4.44716 7.13147 3.35049V1.03083C7.45185 0.978464 8.00019 0.950739 8.39758 1.24647C8.76108 1.51448 8.94592 2.02277 8.94592 2.75594V5.46067C8.94592 5.66398 9.11227 5.83033 9.31558 5.83033H10.6833H12.4362H12.9229C13.2279 5.83033 13.5329 5.94431 13.7762 6.15379C14.1397 6.46493 14.3184 6.96089 14.2383 7.44762Z" fill="#4C4CBF"/>
</g>
<defs>
<clipPath id="clip0_44_345">
<rect width="15" height="15" fill="white"/>
</clipPath>
</defs>
</svg>
