<?xml version="1.0" standalone="no"?>
<!DOCTYPE svg PUBLIC "-//W3C//DTD SVG 20010904//EN"
 "http://www.w3.org/TR/2001/REC-SVG-20010904/DTD/svg10.dtd">
<svg version="1.0" xmlns="http://www.w3.org/2000/svg"
 width="2000.000000pt" height="1247.000000pt" viewBox="0 0 2000.000000 1247.000000"
 preserveAspectRatio="xMidYMid meet">

<g transform="translate(0.000000,1247.000000) scale(0.100000,-0.100000)"
fill="#000000" stroke="none">
<path d="M12035 12464 c-22 -2 -96 -9 -165 -14 -262 -23 -514 -61 -789 -122
-1706 -372 -3198 -1469 -4070 -2993 -98 -171 -231 -427 -231 -444 0 -6 19 -11
43 -11 l43 0 33 68 c52 108 179 337 254 462 799 1324 2074 2306 3552 2735
1737 504 3604 222 5108 -772 971 -641 1764 -1573 2232 -2623 718 -1612 713
-3462 -15 -5060 -542 -1190 -1459 -2188 -2602 -2828 -1105 -619 -2398 -883
-3663 -746 -1587 171 -3039 950 -4071 2184 -276 330 -559 761 -764 1162 l-65
128 -42 0 c-24 0 -43 -5 -43 -11 0 -17 133 -273 231 -444 929 -1624 2556
-2755 4392 -3055 410 -67 661 -84 1129 -77 450 6 716 33 1118 113 2411 479
4329 2353 4866 4756 149 672 187 1391 108 2088 -302 2669 -2332 4870 -4974
5394 -427 85 -668 108 -1165 111 -225 1 -428 1 -450 -1z"/>
<path d="M14107 8650 c-126 -22 -274 -83 -374 -151 -133 -92 -264 -257 -322
-407 -43 -113 -53 -161 -60 -292 l-6 -115 -358 -5 c-378 -5 -376 -5 -377 -51
0 -8 -63 -735 -140 -1614 -77 -879 -140 -1621 -140 -1649 0 -125 54 -241 165
-352 90 -90 189 -148 310 -180 67 -18 130 -19 1445 -19 1119 0 1385 3 1430 13
30 8 98 34 150 59 176 84 303 245 331 418 10 64 -2 222 -135 1709 -84 937
-151 1646 -158 1653 -8 10 -86 13 -364 13 l-354 0 0 83 c0 403 -282 766 -675
868 -90 23 -288 34 -368 19z m348 -115 c159 -43 328 -156 427 -286 109 -144
156 -273 165 -456 l6 -113 -802 0 -801 0 0 93 c0 387 289 717 685 781 57 9
260 -3 320 -19z m-1115 -1220 l0 -265 25 -16 c23 -15 27 -15 50 0 l25 16 0
265 0 265 805 0 805 0 0 -260 c0 -249 1 -261 21 -281 21 -21 56 -19 71 5 4 6
8 129 8 274 l0 262 320 0 c176 0 320 -3 321 -7 0 -5 64 -723 143 -1598 108
-1216 140 -1604 134 -1649 -19 -140 -122 -272 -269 -345 -151 -74 -71 -71
-1549 -71 -1475 0 -1399 -3 -1545 69 -163 80 -274 236 -275 384 0 47 268 3160
276 3195 l4 22 315 0 315 0 0 -265z"/>
<path d="M14435 5710 l-400 -400 -185 185 c-183 183 -209 202 -238 173 -34
-34 -17 -59 196 -271 127 -126 216 -207 227 -207 13 0 177 157 442 423 349
348 423 427 423 449 0 27 -23 48 -52 48 -7 0 -193 -180 -413 -400z"/>
<path d="M11073 7979 c-17 -5 -41 -21 -52 -35 -21 -26 -21 -35 -21 -688 l0
-662 28 -26 c59 -57 187 -58 246 -3 l26 24 0 238 c0 131 5 255 10 275 32 115
182 131 245 26 18 -30 20 -56 25 -293 l5 -259 32 -22 c47 -31 112 -39 178 -20
86 26 85 21 85 321 0 284 -7 335 -57 428 -15 27 -53 73 -85 102 -123 114 -273
113 -385 -1 l-53 -55 0 299 0 299 -23 21 c-42 39 -130 52 -204 31z"/>
<path d="M9483 7841 c-23 -11 -47 -29 -53 -41 -8 -15 -10 -164 -8 -533 l3
-512 24 -52 c27 -60 84 -117 146 -144 84 -37 286 -51 350 -25 97 41 97 191 0
232 -19 8 -67 14 -109 14 -110 0 -106 -10 -106 246 l0 214 114 0 c63 0 122 3
131 6 39 15 59 113 34 167 -17 38 -50 47 -169 47 l-110 0 0 154 c0 85 -4 166
-10 181 -22 58 -154 83 -237 46z"/>
<path d="M4559 7541 c-14 -10 -35 -42 -48 -69 l-24 -50 -55 19 c-161 55 -361
23 -470 -76 -23 -20 -54 -62 -69 -93 -23 -48 -27 -68 -27 -141 1 -103 25 -168
84 -226 l38 -37 -38 -38 c-68 -68 -77 -160 -21 -214 l29 -28 -46 -41 c-107
-99 -109 -234 -4 -329 85 -77 178 -108 337 -115 281 -12 459 95 473 285 5 83
-10 142 -49 187 -64 72 -147 105 -347 135 -140 21 -186 39 -180 68 3 14 17 16
98 13 109 -3 170 9 247 46 71 35 129 92 159 156 44 96 28 261 -32 328 -14 15
-10 21 41 64 45 39 55 53 55 79 0 36 -28 72 -67 87 -36 14 -58 11 -84 -10z
m-237 -262 c29 -16 58 -86 58 -144 0 -110 -38 -168 -110 -168 -71 0 -110 57
-110 163 0 70 18 120 51 144 27 18 81 21 111 5z m-56 -759 c82 -15 133 -39
150 -71 18 -35 18 -43 -2 -85 -30 -62 -139 -93 -218 -60 -49 20 -76 60 -76
113 0 38 5 50 34 79 39 39 33 37 112 24z"/>
<path d="M5063 7459 c-127 -21 -233 -87 -233 -144 0 -75 49 -155 95 -155 13 0
49 14 80 30 49 26 68 30 134 30 42 0 87 -6 100 -13 36 -18 62 -58 68 -105 l6
-42 -76 0 c-296 0 -442 -87 -455 -271 -7 -96 16 -166 71 -216 54 -50 103 -68
187 -67 89 1 129 16 216 85 71 57 74 58 74 33 0 -14 5 -34 11 -46 12 -23 83
-57 119 -58 43 0 102 21 126 45 l24 24 0 279 c0 253 -2 286 -20 345 -58 187
-275 288 -527 246z m247 -567 c0 -10 -12 -41 -26 -70 -41 -82 -127 -120 -175
-76 -22 20 -26 90 -6 117 18 26 84 46 150 47 48 0 57 -3 57 -18z"/>
<path d="M6893 7459 c-79 -13 -160 -47 -198 -83 -41 -39 -46 -85 -16 -153 33
-71 69 -79 156 -33 49 26 68 30 132 30 48 0 85 -6 104 -16 32 -16 68 -81 69
-121 0 -22 -4 -23 -74 -23 -176 0 -310 -36 -382 -102 -58 -53 -78 -115 -72
-218 8 -133 70 -205 202 -231 100 -21 217 22 300 110 38 40 46 39 46 -3 0 -93
179 -128 257 -50 l24 24 -3 298 -3 297 -29 62 c-78 169 -277 251 -513 212z
m242 -581 c-11 -50 -30 -82 -70 -117 -82 -71 -181 -13 -141 83 8 20 16 36 18
36 2 0 21 7 43 15 22 8 66 14 98 15 l59 0 -7 -32z"/>
<path d="M7900 7459 c-129 -21 -246 -112 -292 -227 -19 -49 -23 -80 -26 -225
-3 -148 -1 -176 17 -236 53 -174 195 -265 416 -265 196 0 345 76 345 178 0 38
-36 99 -70 119 -39 23 -68 21 -135 -9 -48 -22 -67 -26 -125 -22 -121 7 -149
46 -149 213 0 120 13 162 58 192 45 31 155 32 220 3 85 -39 142 -18 177 65 32
77 6 128 -88 174 -96 47 -219 61 -348 40z"/>
<path d="M8694 7456 c-85 -20 -157 -52 -189 -86 -25 -26 -27 -34 -23 -85 5
-63 30 -105 71 -119 21 -8 40 -3 95 22 58 27 80 32 145 32 73 0 79 -2 113 -33
29 -26 37 -42 41 -80 l6 -47 -79 0 c-306 -1 -449 -97 -447 -299 1 -119 36
-182 126 -228 43 -22 65 -27 127 -27 93 1 151 24 232 95 55 48 58 49 58 25 0
-37 45 -84 93 -97 62 -16 138 3 172 43 l27 31 -4 286 c-3 253 -6 291 -23 331
-47 114 -124 185 -235 220 -84 27 -226 34 -306 16z m256 -571 c0 -38 -35 -100
-72 -128 -70 -53 -148 -29 -148 47 0 67 58 104 163 105 55 1 57 0 57 -24z"/>
<path d="M10420 7459 c-129 -21 -246 -112 -292 -227 -21 -52 -23 -73 -23 -242
0 -158 3 -192 19 -235 58 -152 173 -231 361 -249 196 -19 395 68 395 173 0 45
-35 108 -70 126 -41 21 -69 19 -135 -11 -48 -22 -67 -26 -125 -22 -121 7 -149
46 -149 213 0 120 13 162 58 192 45 31 155 32 220 3 85 -39 142 -18 177 65 32
77 6 128 -88 174 -96 47 -219 61 -348 40z"/>
<path d="M5803 7450 c-69 -28 -80 -169 -16 -219 23 -19 40 -21 179 -21 85 0
154 -2 154 -5 0 -3 -83 -116 -185 -251 -102 -134 -190 -256 -195 -270 -13 -34
-12 -78 2 -109 24 -53 39 -55 398 -55 208 0 338 4 351 10 66 36 66 194 0 230
-12 6 -94 10 -195 10 -97 0 -176 2 -176 5 0 2 73 100 163 217 90 117 176 231
190 253 31 47 43 118 28 158 -20 53 -49 57 -378 56 -164 0 -308 -4 -320 -9z"/>
<path d="M6138 5635 l-28 -16 0 -418 c0 -408 0 -418 20 -436 15 -13 36 -19 72
-19 43 0 54 4 75 28 l24 28 -3 404 c-3 362 -5 405 -20 420 -23 23 -106 29
-140 9z"/>
<path d="M6952 5638 c-12 -6 -25 -21 -27 -32 -3 -12 -4 -203 -3 -426 l3 -405
38 -19 c45 -21 92 -16 125 15 22 20 22 22 22 428 0 395 -1 408 -20 426 -24 22
-106 30 -138 13z"/>
<path d="M7912 5631 c-60 -21 -118 -70 -138 -118 -8 -18 -14 -59 -14 -91 0
-48 6 -68 34 -114 l34 -56 -53 -55 c-65 -67 -90 -133 -82 -218 9 -102 63 -171
173 -221 39 -18 67 -22 140 -23 88 0 95 2 172 41 l81 41 42 -43 c25 -26 52
-44 65 -44 30 0 84 47 84 72 0 11 -22 45 -49 74 l-50 54 25 54 c49 107 56 224
14 246 -27 14 -93 12 -114 -3 -14 -10 -20 -34 -26 -91 -4 -42 -10 -79 -12 -82
-9 -8 -274 273 -291 309 -29 60 -21 99 24 122 54 29 95 18 162 -41 20 -19 44
-34 53 -34 30 0 71 29 84 60 48 116 -184 221 -358 161z m132 -598 l98 -101
-32 -17 c-40 -21 -129 -21 -169 -1 -36 19 -61 62 -61 106 0 41 43 126 59 118
3 -2 50 -49 105 -105z"/>
<path d="M4082 5629 c-147 -25 -226 -110 -226 -244 0 -124 49 -183 224 -270
102 -50 137 -77 151 -112 23 -60 -45 -110 -134 -100 -33 4 -65 18 -105 47 -60
42 -80 47 -113 30 -24 -13 -49 -61 -49 -94 0 -58 94 -124 208 -146 158 -31
309 29 363 145 29 63 26 177 -7 243 -32 65 -74 98 -210 165 -124 62 -149 84
-140 121 15 62 130 81 224 37 33 -16 59 -21 76 -17 41 10 69 82 50 131 -10 26
-79 55 -157 65 -82 11 -84 11 -155 -1z"/>
<path d="M9055 5618 c-11 -6 -23 -16 -27 -22 -4 -6 -8 -191 -8 -412 0 -395 0
-401 21 -420 19 -17 38 -19 213 -19 180 0 194 1 239 24 86 42 119 110 119 246
1 99 -19 147 -75 184 l-36 24 30 28 c41 38 59 88 59 164 0 112 -41 170 -142
200 -63 19 -361 21 -393 3z m329 -180 c9 -12 16 -38 16 -58 0 -20 -7 -46 -16
-58 -13 -20 -24 -22 -95 -22 l-79 0 0 80 0 80 79 0 c71 0 82 -2 95 -22z m10
-311 c30 -30 41 -92 26 -146 -15 -58 -40 -71 -132 -71 l-78 0 0 120 0 120 80
0 c71 0 84 -3 104 -23z"/>
<path d="M5177 5316 c-65 -18 -126 -64 -162 -121 -29 -47 -30 -53 -30 -164 0
-109 2 -119 28 -163 72 -122 265 -173 415 -108 82 35 103 81 61 134 -25 31
-52 33 -110 6 -76 -34 -172 -20 -199 29 -24 46 -18 48 133 53 78 3 150 9 160
13 42 18 58 92 35 166 -35 119 -194 194 -331 155z m128 -138 c26 -12 41 -47
31 -73 -4 -12 -23 -15 -86 -15 l-80 0 0 29 c0 56 72 88 135 59z"/>
<path d="M11360 5314 c-48 -21 -70 -43 -70 -71 0 -13 47 -118 105 -233 69
-138 105 -221 105 -242 0 -71 -64 -128 -144 -128 -48 0 -66 -22 -66 -80 0 -70
25 -85 122 -77 88 8 151 38 194 94 30 40 274 631 274 664 0 23 -62 76 -99 84
-61 13 -67 5 -115 -148 -25 -78 -48 -154 -52 -169 -3 -16 -9 -26 -13 -23 -4 2
-36 73 -71 157 -34 84 -70 161 -78 171 -18 21 -46 21 -92 1z"/>
<path d="M10240 5313 c-48 -19 -50 -28 -50 -196 0 -199 7 -225 81 -299 45 -45
68 -60 114 -73 132 -39 270 19 329 137 25 50 26 59 26 222 0 94 -4 176 -8 182
-32 48 -156 40 -176 -11 -3 -9 -6 -86 -6 -170 0 -145 -1 -155 -22 -179 -35
-39 -87 -39 -123 0 -24 26 -25 31 -25 189 0 148 -2 163 -20 180 -20 18 -93 29
-120 18z"/>
</g>
</svg>
