<svg width="17" height="17" viewBox="0 0 17 17" fill="none" xmlns="http://www.w3.org/2000/svg">
<path d="M12.25 8.875C12.4571 8.875 12.625 8.70707 12.625 8.5C12.625 8.29293 12.4571 8.125 12.25 8.125C12.0429 8.125 11.875 8.29293 11.875 8.5C11.875 8.70707 12.0429 8.875 12.25 8.875Z" fill="#FFEDED" stroke="#FFFAFA" stroke-linecap="round" stroke-linejoin="round"/>
<path d="M8.5 8.875C8.70707 8.875 8.875 8.70707 8.875 8.5C8.875 8.29293 8.70707 8.125 8.5 8.125C8.29293 8.125 8.125 8.29293 8.125 8.5C8.125 8.70707 8.29293 8.875 8.5 8.875Z" fill="#FFEDED" stroke="#FFFAFA" stroke-linecap="round" stroke-linejoin="round"/>
<path d="M4.75 8.875C4.9571 8.875 5.125 8.70707 5.125 8.5C5.125 8.29293 4.9571 8.125 4.75 8.125C4.54289 8.125 4.375 8.29293 4.375 8.5C4.375 8.70707 4.54289 8.875 4.75 8.875Z" fill="#FFEDED" stroke="#FFFAFA" stroke-linecap="round" stroke-linejoin="round"/>
<path d="M8.5 16C12.6421 16 16 12.6421 16 8.5C16 4.35786 12.6421 1 8.5 1C4.35786 1 1 4.35786 1 8.5C1 9.86605 1.36523 11.1468 2.00337 12.25L1.375 15.625L4.75 14.9967C5.85315 15.6348 7.13395 16 8.5 16Z" stroke="#FFFAFA" stroke-linecap="round" stroke-linejoin="round"/>
</svg>
